<?xml version="1.0" encoding="UTF-8" ?>
<!DOCTYPE svg PUBLIC "-//W3C//DTD SVG 1.1//EN" "http://www.w3.org/Graphics/SVG/1.1/DTD/svg11.dtd">
<svg width="158pt" height="18pt" viewBox="0 0 158 18" version="1.1" xmlns="http://www.w3.org/2000/svg">
<g id="#f7f7f7f7">
<path fill="#f7f7f7" opacity="0.97" d=" M 0.00 1.22 C 4.18 1.23 8.37 1.21 12.55 1.24 C 12.54 1.75 12.50 2.75 12.49 3.26 C 10.83 3.26 9.17 3.26 7.52 3.27 C 7.52 8.01 7.52 12.76 7.52 17.51 L 5.23 17.51 C 5.22 12.76 5.22 8.01 5.22 3.26 C 3.48 3.26 1.74 3.26 0.00 3.25 L 0.00 1.22 Z" />
<path fill="#f7f7f7" opacity="0.97" d=" M 53.71 2.59 C 54.26 2.52 55.35 2.39 55.90 2.32 C 55.91 3.47 55.98 4.62 56.10 5.77 C 56.64 5.77 57.73 5.75 58.27 5.75 L 58.24 7.52 C 57.69 7.52 56.57 7.51 56.01 7.51 C 55.97 10.06 56.03 12.61 56.03 15.16 C 56.81 15.36 58.36 15.77 59.13 15.97 C 58.63 18.72 55.78 17.56 54.03 17.27 C 53.67 14.04 53.72 10.79 53.74 7.54 C 53.31 7.53 52.44 7.51 52.00 7.50 L 52.00 5.77 C 52.45 5.75 53.34 5.70 53.78 5.68 C 53.76 4.91 53.73 3.36 53.71 2.59 Z" />
<path fill="#f7f7f7" opacity="0.97" d=" M 12.90 8.26 C 13.82 4.67 19.97 4.29 21.92 7.18 C 23.08 10.57 22.34 14.26 22.45 17.77 C 20.61 17.40 18.76 17.04 17.03 16.29 C 18.50 16.15 20.83 15.45 20.25 13.54 C 20.38 11.54 17.45 11.11 16.06 11.74 C 14.34 11.98 14.64 14.00 14.83 15.20 C 16.21 15.89 17.53 16.69 18.79 17.59 C 16.17 18.80 12.34 17.07 12.44 13.99 C 12.10 12.11 13.77 11.01 14.89 9.83 C 16.83 9.97 18.75 10.24 20.68 10.50 C 20.16 9.24 19.69 7.03 17.87 7.23 C 16.12 7.13 14.66 8.66 12.90 8.26 Z" />
<path fill="#f7f7f7" opacity="0.97" d=" M 26.53 5.45 C 27.25 5.74 27.97 6.03 28.68 6.33 C 31.00 5.46 34.40 4.39 35.98 7.07 C 36.55 10.51 36.18 14.03 36.25 17.51 L 34.23 17.51 C 34.11 14.35 34.60 11.11 33.82 8.01 C 32.20 6.38 30.19 7.83 28.51 8.49 C 28.55 11.66 28.52 14.83 28.37 17.99 L 28.91 18.00 L 26.69 18.00 C 26.33 13.83 26.48 9.64 26.53 5.45 Z" />
<path fill="#f7f7f7" opacity="0.97" d=" M 76.29 6.09 C 78.85 4.45 81.96 5.61 84.25 7.16 C 82.11 9.58 77.98 4.85 76.72 8.83 C 78.48 11.22 83.90 10.03 84.02 13.98 C 83.96 18.82 77.05 18.65 74.35 16.01 C 74.55 15.63 74.96 14.87 75.17 14.49 C 77.14 15.77 81.54 17.39 82.07 13.89 C 80.54 12.42 78.25 12.34 76.40 11.46 C 74.13 10.68 74.25 7.12 76.29 6.09 Z" />
<path fill="#f7f7f7" opacity="0.97" d=" M 39.93 6.98 C 42.61 5.35 46.83 4.12 49.00 7.19 C 50.15 10.53 49.27 14.25 49.45 17.74 C 47.63 17.33 45.76 17.05 44.03 16.30 C 45.53 16.12 48.49 15.26 47.42 13.14 C 46.67 10.68 41.50 10.82 41.81 13.88 C 41.92 14.44 42.14 15.58 42.25 16.14 L 42.82 15.27 C 43.54 15.92 44.98 17.20 45.70 17.85 C 40.24 19.76 37.34 12.46 41.85 9.83 C 43.92 9.96 45.98 10.22 48.02 10.63 C 47.74 6.82 43.32 6.34 41.04 8.75 C 40.68 8.15 40.30 7.56 39.93 6.98 Z" />
<path fill="#f7f7f7" opacity="0.97" d=" M 63.19 6.09 C 67.35 3.49 73.01 7.24 72.26 12.06 C 72.30 16.13 67.85 18.99 64.14 17.46 C 59.58 15.71 59.16 8.62 63.19 6.09 M 64.63 7.67 C 61.54 9.55 62.22 15.17 65.89 15.96 C 68.52 16.22 70.46 13.35 69.99 10.93 C 69.97 8.38 66.93 6.21 64.63 7.67 Z" />
</g>
<g id="#f3641cfe">
<path fill="#f3641c" opacity="1.00" d=" M 88.85 1.87 C 92.20 0.04 96.23 1.16 99.26 3.09 C 98.58 4.04 97.89 4.99 97.19 5.92 C 95.02 4.88 91.22 2.69 89.93 6.07 C 92.47 7.35 95.44 7.59 97.88 9.07 C 100.69 11.32 99.45 16.51 95.97 17.33 C 92.43 18.48 88.56 17.54 85.68 15.28 C 86.36 14.34 87.04 13.40 87.70 12.44 C 90.13 13.94 93.84 16.00 95.99 12.88 C 93.77 10.66 90.13 11.21 87.78 9.21 C 85.50 7.28 86.20 3.14 88.85 1.87 Z" />
<path fill="#f3641c" opacity="1.00" d=" M 139.46 1.50 C 141.17 -0.54 143.98 1.78 142.94 4.01 C 141.10 5.86 138.23 3.79 139.46 1.50 Z" />
<path fill="#f3641c" opacity="1.00" d=" M 132.72 1.25 C 133.54 1.25 135.18 1.25 136.00 1.25 C 136.00 6.66 136.00 12.08 136.00 17.49 C 133.37 17.24 130.74 17.64 128.12 17.65 C 122.55 16.43 122.64 6.83 128.06 5.47 C 129.75 4.92 131.30 5.95 132.83 6.51 C 132.78 4.76 132.74 3.00 132.72 1.25 M 127.61 12.50 C 127.94 15.24 130.89 14.87 132.77 14.12 C 132.73 12.43 132.72 10.73 132.69 9.04 C 130.16 7.23 126.60 9.38 127.61 12.50 Z" />
<path fill="#f3641c" opacity="1.00" d=" M 102.24 2.50 C 103.06 2.50 104.69 2.50 105.50 2.50 C 105.50 3.31 105.50 4.92 105.50 5.73 C 106.12 5.74 107.38 5.76 108.01 5.77 C 108.00 6.45 107.98 7.83 107.97 8.52 C 107.34 8.52 106.07 8.51 105.44 8.51 C 105.53 10.22 105.34 11.99 105.74 13.67 C 106.98 14.67 108.10 15.78 108.68 17.31 C 106.60 17.55 103.42 18.65 102.40 15.94 C 102.11 13.49 102.25 11.02 102.25 8.55 C 101.74 8.53 100.73 8.47 100.22 8.44 C 100.23 7.78 100.25 6.45 100.26 5.79 C 100.76 5.76 101.76 5.72 102.26 5.70 C 102.26 4.90 102.25 3.30 102.24 2.50 Z" />
<path fill="#f3641c" opacity="1.00" d=" M 110.26 5.74 C 111.33 5.75 112.41 5.75 113.50 5.74 C 113.47 8.81 113.28 11.94 114.20 14.92 C 115.50 14.51 117.38 14.88 118.11 13.44 C 118.41 10.89 118.22 8.31 118.25 5.75 C 119.06 5.75 120.69 5.75 121.50 5.75 C 121.49 9.76 121.53 13.77 121.46 17.77 C 120.26 17.43 119.06 17.15 117.84 16.91 C 115.71 17.58 113.17 18.48 111.18 16.91 C 109.45 13.48 110.52 9.43 110.26 5.74 Z" />
<path fill="#f3641c" opacity="1.00" d=" M 148.88 5.89 C 152.56 4.08 157.11 6.36 158.00 10.34 L 158.00 12.70 C 157.19 16.67 152.77 18.97 149.06 17.33 C 144.29 15.60 144.18 7.76 148.88 5.89 M 149.56 9.36 C 147.22 11.71 150.38 16.43 153.29 14.31 C 156.76 12.04 152.50 5.80 149.56 9.36 Z" />
<path fill="#f3641c" opacity="1.00" d=" M 139.50 5.75 C 140.31 5.75 141.94 5.75 142.75 5.75 C 142.75 9.67 142.75 13.58 142.75 17.50 C 141.94 17.50 140.31 17.50 139.50 17.50 C 139.50 13.58 139.50 9.67 139.50 5.75 Z" />
</g>
</svg>
