<?xml version="1.0" encoding="UTF-8" ?>
<!DOCTYPE svg PUBLIC "-//W3C//DTD SVG 1.1//EN" "http://www.w3.org/Graphics/SVG/1.1/DTD/svg11.dtd">
<svg width="36pt" height="58pt" viewBox="0 0 36 58" version="1.1" xmlns="http://www.w3.org/2000/svg">
<g id="#f7600eff">
<path fill="#f7600e" opacity="1.00" d=" M 4.70 0.00 L 6.34 0.00 C 7.86 2.92 9.56 5.75 11.01 8.70 C 10.98 25.13 11.03 41.57 10.98 58.00 L 0.00 58.00 L 0.00 8.56 C 1.61 5.73 3.10 2.84 4.70 0.00 M 5.47 3.49 C 4.34 5.68 3.22 7.89 1.92 10.00 C 4.29 10.00 6.66 10.00 9.03 10.00 C 7.79 7.86 6.71 5.63 5.47 3.49 M 2.01 12.01 C 1.99 25.00 1.99 38.00 2.01 50.99 C 4.30 51.01 6.59 51.01 8.87 50.99 C 8.88 37.99 8.88 25.00 8.87 12.01 C 6.59 11.99 4.30 11.99 2.01 12.01 M 2.01 53.01 C 2.01 53.76 2.01 55.24 2.01 55.99 C 4.30 56.00 6.59 56.02 8.88 55.98 C 8.88 55.24 8.88 53.76 8.88 53.02 C 6.59 52.98 4.30 52.99 2.01 53.01 Z" />
<path fill="#f7600e" opacity="1.00" d=" M 20.02 0.00 L 36.00 0.00 L 36.00 58.00 L 20.04 58.00 C 19.97 38.67 19.99 19.33 20.02 0.00 M 22.02 2.12 C 21.98 3.75 21.99 5.37 22.01 6.99 C 23.34 6.99 24.67 7.00 25.99 7.03 C 25.99 7.51 25.99 8.49 25.99 8.97 C 24.67 9.00 23.34 9.01 22.01 9.01 C 21.99 10.67 21.99 12.33 22.01 13.99 C 24.00 14.04 26.00 13.94 27.99 14.05 C 27.99 14.53 27.99 15.47 27.99 15.95 C 26.00 16.06 24.00 15.96 22.01 16.01 C 21.99 17.67 21.99 19.33 22.01 20.99 C 23.34 20.99 24.67 21.00 25.99 21.03 C 25.99 21.51 25.99 22.49 25.99 22.97 C 24.67 23.00 23.34 23.01 22.01 23.01 C 21.99 24.67 21.99 26.33 22.01 27.99 C 24.00 28.04 26.00 27.94 27.99 28.05 C 27.99 28.52 27.99 29.47 27.99 29.95 C 26.00 30.06 24.00 29.96 22.01 30.01 C 21.99 31.67 21.99 33.33 22.01 34.99 C 23.34 34.99 24.67 35.00 25.99 35.03 C 25.99 35.51 25.99 36.49 25.99 36.97 C 24.67 37.00 23.34 37.01 22.01 37.01 C 21.99 38.67 21.99 40.33 22.01 41.99 C 24.00 42.04 26.00 41.94 27.99 42.05 C 27.99 42.53 27.99 43.47 27.99 43.95 C 26.00 44.06 24.00 43.96 22.01 44.01 C 21.99 45.67 21.99 47.33 22.01 48.99 C 23.34 48.99 24.67 49.00 25.99 49.03 C 25.99 49.51 26.00 50.49 26.00 50.97 C 24.67 51.00 23.34 51.01 22.01 51.01 C 21.99 52.67 21.99 54.33 22.01 55.99 C 26.00 56.00 30.00 56.01 33.99 55.99 C 34.00 38.04 34.01 20.08 33.98 2.12 C 30.00 2.12 26.01 2.12 22.02 2.12 Z" />
</g>
</svg>
