<?xml version="1.0" encoding="UTF-8" ?>
<!DOCTYPE svg PUBLIC "-//W3C//DTD SVG 1.1//EN" "http://www.w3.org/Graphics/SVG/1.1/DTD/svg11.dtd">
<svg width="55pt" height="58pt" viewBox="0 0 55 58" version="1.1" xmlns="http://www.w3.org/2000/svg">
<g id="#f7600eff">
<path fill="#f7600e" opacity="1.00" d=" M 11.49 0.00 L 43.43 0.00 C 43.90 4.24 43.62 8.52 43.69 12.78 C 47.47 13.13 52.55 11.38 55.00 15.23 L 55.00 44.35 C 52.54 48.30 47.49 46.57 43.68 46.90 C 43.73 50.60 43.73 54.30 43.51 58.00 L 11.56 58.00 C 11.16 54.31 11.32 50.60 11.32 46.90 C 7.51 46.57 2.47 48.30 0.00 44.36 L 0.00 15.29 C 2.36 11.34 7.53 13.14 11.31 12.78 C 11.32 8.52 11.22 4.25 11.49 0.00 M 13.86 2.12 C 13.87 5.63 13.79 9.14 13.95 12.65 C 23.04 12.45 32.12 12.76 41.20 12.49 C 41.11 9.04 41.14 5.58 41.14 2.12 C 32.05 2.12 22.96 2.12 13.86 2.12 M 2.13 17.96 C 2.08 25.32 2.16 32.68 2.10 40.04 C 2.18 41.42 1.83 43.06 3.03 44.08 C 5.66 44.72 8.41 44.30 11.10 44.38 C 11.12 40.33 11.03 36.28 11.20 32.23 C 22.04 31.85 32.92 31.93 43.77 32.19 C 44.00 36.25 43.86 40.32 43.90 44.38 C 46.73 43.87 51.00 45.75 52.78 42.90 C 53.02 34.58 52.83 26.23 52.87 17.89 C 53.05 16.31 51.79 14.64 50.08 15.01 C 35.03 14.99 19.98 14.99 4.93 15.01 C 3.19 14.62 1.93 16.36 2.13 17.96 M 13.98 34.94 C 14.07 41.92 13.80 48.90 13.87 55.88 C 22.96 55.88 32.04 55.88 41.13 55.88 C 41.20 48.90 40.93 41.92 41.02 34.94 C 32.01 34.94 22.99 34.94 13.98 34.94 Z" />
<path fill="#f7600e" opacity="1.00" d=" M 38.02 21.93 C 39.21 19.65 41.11 19.95 42.35 21.98 C 41.58 22.71 40.81 23.43 40.03 24.15 C 39.53 23.59 38.53 22.48 38.02 21.93 Z" />
<path fill="#f7600e" opacity="1.00" d=" M 43.90 22.95 C 42.01 21.92 45.10 18.94 46.15 20.74 C 46.46 21.05 47.07 21.67 47.38 21.98 C 46.55 22.97 44.91 24.88 43.90 22.95 Z" />
</g>
</svg>
