<?xml version="1.0" encoding="UTF-8" ?>
<!DOCTYPE svg PUBLIC "-//W3C//DTD SVG 1.1//EN" "http://www.w3.org/Graphics/SVG/1.1/DTD/svg11.dtd">
<svg width="35pt" height="59pt" viewBox="0 0 35 59" version="1.1" xmlns="http://www.w3.org/2000/svg">
<g id="#f7600eff">
<path fill="#f7600e" opacity="1.00" d=" M 1.89 0.00 L 33.30 0.00 C 33.11 1.20 33.68 1.83 35.00 1.89 L 35.00 57.30 C 33.80 57.11 33.17 57.68 33.11 59.00 L 1.70 59.00 C 1.89 57.80 1.32 57.17 0.00 57.11 L 0.00 1.70 C 1.20 1.89 1.83 1.32 1.89 0.00 M 3.30 2.23 C 1.97 2.99 1.95 4.57 1.98 5.91 C 2.03 21.97 1.97 38.03 2.02 54.09 C 1.88 55.26 2.62 56.92 3.98 56.83 C 12.97 56.93 21.97 56.91 30.96 56.83 C 32.88 56.86 33.14 54.50 33.02 53.06 C 32.91 36.71 33.14 20.36 32.90 4.02 C 32.66 1.64 29.72 1.98 27.99 1.97 C 19.77 2.19 11.50 1.66 3.30 2.23 Z" />
<path fill="#f7600e" opacity="1.00" d=" M 10.00 6.02 C 15.00 5.99 20.00 5.99 25.00 6.02 C 25.00 6.51 25.00 7.49 25.00 7.98 C 20.00 8.01 15.01 8.01 10.01 7.98 C 10.01 7.49 10.00 6.51 10.00 6.02 Z" />
<path fill="#f7600e" opacity="1.00" d=" M 16.07 50.06 C 16.80 50.08 18.24 50.11 18.97 50.13 C 18.96 50.82 18.93 52.21 18.92 52.90 C 18.21 52.91 16.80 52.93 16.09 52.94 C 16.09 52.22 16.08 50.78 16.07 50.06 Z" />
</g>
</svg>
