<?xml version="1.0" encoding="UTF-8" ?>
<!DOCTYPE svg PUBLIC "-//W3C//DTD SVG 1.1//EN" "http://www.w3.org/Graphics/SVG/1.1/DTD/svg11.dtd">
<svg width="57pt" height="47pt" viewBox="0 0 57 47" version="1.1" xmlns="http://www.w3.org/2000/svg">
<g id="#f7600eff">
<path fill="#f7600e" opacity="1.00" d=" M 1.62 0.00 L 55.12 0.00 C 55.18 1.31 55.81 1.90 57.00 1.77 L 57.00 35.37 C 56.31 36.26 55.60 37.13 54.89 37.99 C 46.53 38.01 38.17 37.99 29.81 38.00 C 29.81 40.33 29.81 42.67 29.81 45.00 C 32.85 45.00 35.90 45.00 38.94 45.00 C 38.98 45.50 39.05 46.50 39.08 47.00 L 17.98 47.00 C 17.99 46.50 18.01 45.50 18.02 45.00 C 21.09 45.00 24.17 45.00 27.25 45.00 C 27.25 42.67 27.25 40.33 27.25 38.00 C 18.87 37.99 10.50 38.01 2.12 37.99 C 1.40 37.14 0.70 36.28 0.00 35.42 L 0.00 1.79 C 1.33 1.98 1.87 1.38 1.62 0.00 M 2.06 4.84 C 1.89 12.22 2.06 19.61 2.00 27.00 C 19.67 27.00 37.33 27.00 55.00 27.00 C 54.94 19.61 55.11 12.22 54.94 4.84 C 54.98 3.38 53.65 1.79 52.10 2.02 C 36.37 1.99 20.62 1.98 4.89 2.02 C 3.34 1.80 2.01 3.39 2.06 4.84 M 1.95 29.00 C 2.10 31.37 1.20 36.12 4.91 35.85 C 20.63 35.90 36.35 35.90 52.08 35.85 C 55.80 36.14 54.90 31.38 55.05 29.00 C 37.35 29.00 19.65 29.00 1.95 29.00 Z" />
<path fill="#f7600e" opacity="1.00" d=" M 27.05 31.09 C 27.77 31.09 29.22 31.09 29.94 31.09 C 29.93 31.79 29.92 33.21 29.92 33.92 C 29.21 33.93 27.81 33.94 27.11 33.95 C 27.09 33.23 27.06 31.80 27.05 31.09 Z" />
</g>
</svg>
